<svg width="1480" height="720" viewBox="0 0 1480 720" fill="none" xmlns="http://www.w3.org/2000/svg">
  <rect width="1480" height="720" rx="28" fill="#0F172A"/>

  <text x="64" y="76" fill="#F8FAFC" font-family="Inter, Arial, sans-serif" font-size="36" font-weight="700">ReBrick flow</text>
  <text x="64" y="114" fill="#94A3B8" font-family="Inter, Arial, sans-serif" font-size="18">From photo upload to build ideas</text>

  <defs>
    <marker id="arrowBlue" viewBox="0 0 10 10" refX="8" refY="5" markerWidth="8" markerHeight="8" orient="auto-start-reverse">
      <path d="M 0 0 L 10 5 L 0 10 z" fill="#38BDF8"/>
    </marker>
    <marker id="arrowAmber" viewBox="0 0 10 10" refX="8" refY="5" markerWidth="8" markerHeight="8" orient="auto-start-reverse">
      <path d="M 0 0 L 10 5 L 0 10 z" fill="#F59E0B"/>
    </marker>
    <marker id="arrowPurple" viewBox="0 0 10 10" refX="8" refY="5" markerWidth="8" markerHeight="8" orient="auto-start-reverse">
      <path d="M 0 0 L 10 5 L 0 10 z" fill="#A78BFA"/>
    </marker>
  </defs>

  <rect x="64" y="170" width="250" height="128" rx="24" fill="#0B1220" stroke="#22D3EE" stroke-width="2"/>
  <circle cx="108" cy="212" r="18" fill="#22D3EE"/>
  <text x="101" y="218" fill="#082F49" font-family="Inter, Arial, sans-serif" font-size="16" font-weight="700">1</text>
  <text x="140" y="208" fill="#F8FAFC" font-family="Inter, Arial, sans-serif" font-size="24" font-weight="700">Upload photos</text>
  <text x="92" y="250" fill="#CBD5E1" font-family="Inter, Arial, sans-serif" font-size="18">1 to 3 photos</text>
  <text x="92" y="278" fill="#CBD5E1" font-family="Inter, Arial, sans-serif" font-size="18">Plain background</text>

  <rect x="364" y="170" width="250" height="128" rx="24" fill="#0B1220" stroke="#22D3EE" stroke-width="2"/>
  <circle cx="408" cy="212" r="18" fill="#22D3EE"/>
  <text x="401" y="218" fill="#082F49" font-family="Inter, Arial, sans-serif" font-size="16" font-weight="700">2</text>
  <text x="440" y="208" fill="#F8FAFC" font-family="Inter, Arial, sans-serif" font-size="24" font-weight="700">Check pieces</text>
  <text x="392" y="250" fill="#CBD5E1" font-family="Inter, Arial, sans-serif" font-size="18">The app makes</text>
  <text x="392" y="278" fill="#CBD5E1" font-family="Inter, Arial, sans-serif" font-size="18">a rough piece list</text>

  <rect x="664" y="170" width="250" height="128" rx="24" fill="#0B1220" stroke="#22D3EE" stroke-width="2"/>
  <circle cx="708" cy="212" r="18" fill="#22D3EE"/>
  <text x="701" y="218" fill="#082F49" font-family="Inter, Arial, sans-serif" font-size="16" font-weight="700">3</text>
  <text x="740" y="208" fill="#F8FAFC" font-family="Inter, Arial, sans-serif" font-size="24" font-weight="700">Review results</text>
  <text x="692" y="250" fill="#CBD5E1" font-family="Inter, Arial, sans-serif" font-size="18">Check anything</text>
  <text x="692" y="278" fill="#CBD5E1" font-family="Inter, Arial, sans-serif" font-size="18">that looks wrong</text>

  <rect x="496" y="418" width="170" height="96" rx="22" fill="#1E293B" stroke="#F59E0B" stroke-width="2"/>
  <text x="548" y="472" fill="#F8FAFC" font-family="Inter, Arial, sans-serif" font-size="26" font-weight="700">Fix it</text>
  <text x="532" y="500" fill="#FCD34D" font-family="Inter, Arial, sans-serif" font-size="16">Choose the best match</text>

  <rect x="718" y="418" width="170" height="96" rx="22" fill="#1E293B" stroke="#A78BFA" stroke-width="2"/>
  <text x="760" y="472" fill="#F8FAFC" font-family="Inter, Arial, sans-serif" font-size="26" font-weight="700">Skip it</text>
  <text x="740" y="500" fill="#C4B5FD" font-family="Inter, Arial, sans-serif" font-size="16">Leave it out for now</text>

  <rect x="966" y="418" width="206" height="96" rx="22" fill="#0B1220" stroke="#22D3EE" stroke-width="2"/>
  <circle cx="1010" cy="460" r="18" fill="#22D3EE"/>
  <text x="1003" y="466" fill="#082F49" font-family="Inter, Arial, sans-serif" font-size="16" font-weight="700">4</text>
  <text x="1042" y="456" fill="#F8FAFC" font-family="Inter, Arial, sans-serif" font-size="24" font-weight="700">Build ideas</text>
  <text x="994" y="498" fill="#CBD5E1" font-family="Inter, Arial, sans-serif" font-size="18">Use the final piece list</text>

  <rect x="1218" y="418" width="198" height="96" rx="22" fill="#0B1220" stroke="#22D3EE" stroke-width="2"/>
  <circle cx="1262" cy="460" r="18" fill="#22D3EE"/>
  <text x="1255" y="466" fill="#082F49" font-family="Inter, Arial, sans-serif" font-size="16" font-weight="700">5</text>
  <text x="1294" y="456" fill="#F8FAFC" font-family="Inter, Arial, sans-serif" font-size="24" font-weight="700">Open build</text>
  <text x="1246" y="498" fill="#CBD5E1" font-family="Inter, Arial, sans-serif" font-size="18">3D preview and assembly</text>

  <path d="M314 234 H364" stroke="#38BDF8" stroke-width="4" marker-end="url(#arrowBlue)"/>
  <path d="M614 234 H664" stroke="#38BDF8" stroke-width="4" marker-end="url(#arrowBlue)"/>
  <path d="M1172 466 H1218" stroke="#38BDF8" stroke-width="4" marker-end="url(#arrowBlue)"/>

  <path d="M914 234 C980 234 1010 300 1034 418" stroke="#38BDF8" stroke-width="4" marker-end="url(#arrowBlue)"/>
  <text x="930" y="258" fill="#7DD3FC" font-family="Inter, Arial, sans-serif" font-size="16" font-weight="600">Looks good</text>

  <path d="M790 298 C790 338 692 362 612 418" stroke="#F59E0B" stroke-width="4" marker-end="url(#arrowAmber)"/>
  <text x="656" y="356" fill="#FCD34D" font-family="Inter, Arial, sans-serif" font-size="16" font-weight="600">Needs a fix</text>

  <path d="M820 298 C820 344 804 364 804 418" stroke="#A78BFA" stroke-width="4" marker-end="url(#arrowPurple)"/>
  <text x="826" y="356" fill="#C4B5FD" font-family="Inter, Arial, sans-serif" font-size="16" font-weight="600">Skip for now</text>

  <path d="M666 466 H966" stroke="#38BDF8" stroke-width="4" marker-end="url(#arrowBlue)"/>
  <path d="M888 466 H966" stroke="#38BDF8" stroke-width="4" marker-end="url(#arrowBlue)"/>
</svg>
