<svg width="1120" height="860" viewBox="0 0 1120 860" fill="none" xmlns="http://www.w3.org/2000/svg">
  <rect width="1120" height="860" rx="28" fill="#0F172A"/>

  <defs>
    <marker id="arrowBlue" viewBox="0 0 10 10" refX="8" refY="5" markerWidth="8" markerHeight="8" orient="auto-start-reverse">
      <path d="M 0 0 L 10 5 L 0 10 z" fill="#38BDF8"/>
    </marker>
    <marker id="arrowAmber" viewBox="0 0 10 10" refX="8" refY="5" markerWidth="8" markerHeight="8" orient="auto-start-reverse">
      <path d="M 0 0 L 10 5 L 0 10 z" fill="#F59E0B"/>
    </marker>
    <marker id="arrowPurple" viewBox="0 0 10 10" refX="8" refY="5" markerWidth="8" markerHeight="8" orient="auto-start-reverse">
      <path d="M 0 0 L 10 5 L 0 10 z" fill="#A78BFA"/>
    </marker>
  </defs>

  <text x="56" y="70" fill="#F8FAFC" font-family="Inter, Arial, sans-serif" font-size="34" font-weight="700">ReBrick flow</text>
  <text x="56" y="106" fill="#94A3B8" font-family="Inter, Arial, sans-serif" font-size="18">From photo upload to build ideas</text>

  <rect x="60" y="160" width="260" height="122" rx="24" fill="#0B1220" stroke="#22D3EE" stroke-width="2"/>
  <circle cx="106" cy="202" r="18" fill="#22D3EE"/>
  <text x="99" y="208" fill="#082F49" font-family="Inter, Arial, sans-serif" font-size="16" font-weight="700">1</text>
  <text x="138" y="198" fill="#F8FAFC" font-family="Inter, Arial, sans-serif" font-size="24" font-weight="700">Upload photos</text>
  <text x="88" y="240" fill="#CBD5E1" font-family="Inter, Arial, sans-serif" font-size="18">1 to 3 photos</text>
  <text x="88" y="268" fill="#CBD5E1" font-family="Inter, Arial, sans-serif" font-size="18">Plain background</text>

  <rect x="430" y="160" width="260" height="122" rx="24" fill="#0B1220" stroke="#22D3EE" stroke-width="2"/>
  <circle cx="476" cy="202" r="18" fill="#22D3EE"/>
  <text x="469" y="208" fill="#082F49" font-family="Inter, Arial, sans-serif" font-size="16" font-weight="700">2</text>
  <text x="508" y="198" fill="#F8FAFC" font-family="Inter, Arial, sans-serif" font-size="24" font-weight="700">Check pieces</text>
  <text x="458" y="240" fill="#CBD5E1" font-family="Inter, Arial, sans-serif" font-size="18">The app makes</text>
  <text x="458" y="268" fill="#CBD5E1" font-family="Inter, Arial, sans-serif" font-size="18">a rough piece list</text>

  <rect x="800" y="160" width="260" height="122" rx="24" fill="#0B1220" stroke="#22D3EE" stroke-width="2"/>
  <circle cx="846" cy="202" r="18" fill="#22D3EE"/>
  <text x="839" y="208" fill="#082F49" font-family="Inter, Arial, sans-serif" font-size="16" font-weight="700">3</text>
  <text x="878" y="198" fill="#F8FAFC" font-family="Inter, Arial, sans-serif" font-size="24" font-weight="700">Review results</text>
  <text x="828" y="240" fill="#CBD5E1" font-family="Inter, Arial, sans-serif" font-size="18">Check anything</text>
  <text x="828" y="268" fill="#CBD5E1" font-family="Inter, Arial, sans-serif" font-size="18">that looks wrong</text>

  <rect x="280" y="384" width="210" height="98" rx="22" fill="#1E293B" stroke="#F59E0B" stroke-width="2"/>
  <text x="347" y="437" fill="#F8FAFC" font-family="Inter, Arial, sans-serif" font-size="26" font-weight="700">Fix it</text>
  <text x="326" y="465" fill="#FCD34D" font-family="Inter, Arial, sans-serif" font-size="16">Pick the best match</text>

  <rect x="630" y="384" width="210" height="98" rx="22" fill="#1E293B" stroke="#A78BFA" stroke-width="2"/>
  <text x="691" y="437" fill="#F8FAFC" font-family="Inter, Arial, sans-serif" font-size="26" font-weight="700">Skip it</text>
  <text x="668" y="465" fill="#C4B5FD" font-family="Inter, Arial, sans-serif" font-size="16">Leave it out for now</text>

  <rect x="455" y="568" width="260" height="122" rx="24" fill="#0B1220" stroke="#22D3EE" stroke-width="2"/>
  <circle cx="501" cy="610" r="18" fill="#22D3EE"/>
  <text x="494" y="616" fill="#082F49" font-family="Inter, Arial, sans-serif" font-size="16" font-weight="700">4</text>
  <text x="533" y="606" fill="#F8FAFC" font-family="Inter, Arial, sans-serif" font-size="24" font-weight="700">Build ideas</text>
  <text x="483" y="648" fill="#CBD5E1" font-family="Inter, Arial, sans-serif" font-size="18">Use the final piece list</text>
  <text x="483" y="676" fill="#CBD5E1" font-family="Inter, Arial, sans-serif" font-size="18">and open a preview</text>

  <rect x="455" y="718" width="260" height="104" rx="24" fill="#0B1220" stroke="#22D3EE" stroke-width="2"/>
  <circle cx="501" cy="758" r="18" fill="#22D3EE"/>
  <text x="494" y="764" fill="#082F49" font-family="Inter, Arial, sans-serif" font-size="16" font-weight="700">5</text>
  <text x="533" y="754" fill="#F8FAFC" font-family="Inter, Arial, sans-serif" font-size="24" font-weight="700">Open build</text>
  <text x="483" y="794" fill="#CBD5E1" font-family="Inter, Arial, sans-serif" font-size="18">3D preview and assembly</text>

  <path d="M320 221 H430" stroke="#38BDF8" stroke-width="4" marker-end="url(#arrowBlue)"/>
  <path d="M690 221 H800" stroke="#38BDF8" stroke-width="4" marker-end="url(#arrowBlue)"/>

  <path d="M880 282 V338 H385 V384" stroke="#F59E0B" stroke-width="4" marker-end="url(#arrowAmber)"/>
  <text x="590" y="330" fill="#FCD34D" font-family="Inter, Arial, sans-serif" font-size="16" font-weight="600">Needs a fix</text>

  <path d="M930 282 V384" stroke="#A78BFA" stroke-width="4" marker-end="url(#arrowPurple)"/>
  <text x="944" y="342" fill="#C4B5FD" font-family="Inter, Arial, sans-serif" font-size="16" font-weight="600">Skip for now</text>

  <path d="M1010 282 V520 H585 V568" stroke="#38BDF8" stroke-width="4" marker-end="url(#arrowBlue)"/>
  <text x="1024" y="372" fill="#7DD3FC" font-family="Inter, Arial, sans-serif" font-size="16" font-weight="600">Looks good</text>

  <path d="M385 482 V530 H535 V568" stroke="#38BDF8" stroke-width="4" marker-end="url(#arrowBlue)"/>
  <path d="M735 482 V530 H635 V568" stroke="#38BDF8" stroke-width="4" marker-end="url(#arrowBlue)"/>

  <path d="M585 690 V718" stroke="#38BDF8" stroke-width="4" marker-end="url(#arrowBlue)"/>
</svg>
